<svg width="17" height="17" viewBox="0 0 17 17" fill="none" xmlns="http://www.w3.org/2000/svg">
<path d="M13.6666 10.625C13.9428 10.625 14.1666 10.8489 14.1666 11.125V12.25C14.1666 12.5261 14.3905 12.75 14.6666 12.75H15.7916C16.0678 12.75 16.2916 12.9739 16.2916 13.25V13.6667C16.2916 13.9428 16.0678 14.1667 15.7916 14.1667H14.6666C14.3905 14.1667 14.1666 14.3905 14.1666 14.6667V15.7917C14.1666 16.0678 13.9428 16.2917 13.6666 16.2917H13.25C12.9738 16.2917 12.75 16.0678 12.75 15.7917V14.6667C12.75 14.3905 12.5261 14.1667 12.25 14.1667H11.125C10.8488 14.1667 10.625 13.9428 10.625 13.6667V13.25C10.625 12.9739 10.8488 12.75 11.125 12.75H12.25C12.5261 12.75 12.75 12.5261 12.75 12.25V11.125C12.75 10.8489 12.9738 10.625 13.25 10.625H13.6666ZM8.49998 9.20833C7.72081 9.20833 7.08331 9.84583 7.08331 10.625C7.08331 11.4042 7.72081 12.0417 8.49998 12.0417C9.27915 12.0417 9.91665 11.4042 9.91665 10.625C9.91665 9.84583 9.27915 9.20833 8.49998 9.20833ZM9.27561 14.1951C9.33732 14.5338 9.09629 14.875 8.75202 14.875H3.89581C3.24415 14.875 2.69873 14.4358 2.53581 13.8408L0.746627 7.31101C0.739983 7.28676 0.730751 7.26327 0.723637 7.23915C0.708313 7.18721 0.708313 7.13527 0.708313 7.08333C0.708313 6.69375 1.02706 6.375 1.41665 6.375H4.54242C4.70935 6.375 4.86527 6.29169 4.95806 6.15293L7.91206 1.73541C7.97594 1.63816 8.06287 1.55819 8.1651 1.50262C8.26734 1.44706 8.38172 1.41761 8.49808 1.41691C8.61444 1.41621 8.72917 1.44427 8.83207 1.4986C8.93497 1.55293 9.02285 1.63185 9.0879 1.72833L12.0419 6.15264C12.1347 6.29157 12.2907 6.375 12.4578 6.375H15.5833C15.9729 6.375 16.2916 6.69375 16.2916 7.08333L16.2747 7.23554C16.2718 7.26153 16.2669 7.28725 16.26 7.31246L15.7501 9.17349C15.6649 9.48436 15.3123 9.63256 15.0129 9.51318C14.934 9.48174 14.854 9.45224 14.773 9.42498C14.4969 9.33214 14.3175 9.04651 14.3947 8.76571L14.4886 8.42419C14.5761 8.10589 14.3366 7.79166 14.0065 7.79166H2.99984C2.66995 7.79166 2.43048 8.1055 2.51758 8.42368L3.79508 13.0903C3.85456 13.3077 4.05204 13.4583 4.27733 13.4583H8.70831C8.98446 13.4583 9.20533 13.683 9.23921 13.9571C9.2491 14.0371 9.26128 14.1164 9.27561 14.1951ZM7.03488 5.59765C6.81336 5.92992 7.05156 6.375 7.4509 6.375H9.54905C9.9484 6.375 10.1866 5.92992 9.96508 5.59765L8.916 4.02403C8.71809 3.72717 8.28187 3.72717 8.08395 4.02403L7.03488 5.59765Z" fill="black"/>
</svg>
