<svg width="58" height="58" viewBox="0 0 58 58" fill="none" xmlns="http://www.w3.org/2000/svg">
<path d="M45.4109 14.5H40.5775C40.5775 7.73335 35.2609 2.41669 28.4942 2.41669C21.7275 2.41669 16.4109 7.73335 16.4109 14.5H11.5775C8.9192 14.5 6.7442 16.675 6.7442 19.3334V48.3334C6.7442 50.9917 8.9192 53.1667 11.5775 53.1667H45.4109C48.0692 53.1667 50.2442 50.9917 50.2442 48.3334V19.3334C50.2442 16.675 48.0692 14.5 45.4109 14.5ZM28.3256 4.72092C32.4339 4.72092 37.7675 8.09302 37.7675 14.5H19.173C19.173 8.53814 24.2173 4.72092 28.3256 4.72092ZM47.8837 49.5814C47.8837 50.1337 47.436 50.5814 46.8837 50.5814H9.76746C9.21517 50.5814 8.76746 50.1337 8.76746 49.5814V17.8605C8.76746 17.3082 9.21517 16.8605 9.76746 16.8605H46.8837C47.436 16.8605 47.8837 17.3082 47.8837 17.8605V49.5814Z" fill="black"/>
<path d="M23.5203 33.1378C23.0089 33.1378 22.5766 32.9613 22.2235 32.6081C21.8704 32.255 21.6938 31.8227 21.6938 31.3113C21.6938 30.7999 21.8704 30.3676 22.2235 30.0144C22.5766 29.6613 23.0089 29.4847 23.5203 29.4847C24.0318 29.4847 24.4641 29.6613 24.8172 30.0144C25.1703 30.3676 25.3469 30.7999 25.3469 31.3113C25.3469 31.8227 25.1703 32.255 24.8172 32.6081C24.4641 32.9613 24.0318 33.1378 23.5203 33.1378ZM26.8081 30.2154C26.2967 30.2154 25.8644 30.0388 25.5113 29.6857C25.1581 29.3325 24.9816 28.9002 24.9816 28.3888C24.9816 27.8774 25.1581 27.4451 25.5113 27.092C25.8644 26.7388 26.2967 26.5623 26.8081 26.5623C27.3196 26.5623 27.7518 26.7388 28.105 27.092C28.4581 27.4451 28.6347 27.8774 28.6347 28.3888C28.6347 28.9002 28.4581 29.3325 28.105 29.6857C27.7518 30.0388 27.3196 30.2154 26.8081 30.2154ZM31.1918 30.2154C30.6804 30.2154 30.2481 30.0388 29.895 29.6857C29.5419 29.3325 29.3653 28.9002 29.3653 28.3888C29.3653 27.8774 29.5419 27.4451 29.895 27.092C30.2481 26.7388 30.6804 26.5623 31.1918 26.5623C31.7033 26.5623 32.1356 26.7388 32.4887 27.092C32.8418 27.4451 33.0184 27.8774 33.0184 28.3888C33.0184 28.9002 32.8418 29.3325 32.4887 29.6857C32.1356 30.0388 31.7033 30.2154 31.1918 30.2154ZM34.4796 33.1378C33.9682 33.1378 33.5359 32.9613 33.1828 32.6081C32.8297 32.255 32.6531 31.8227 32.6531 31.3113C32.6531 30.7999 32.8297 30.3676 33.1828 30.0144C33.5359 29.6613 33.9682 29.4847 34.4796 29.4847C34.9911 29.4847 35.4234 29.6613 35.7765 30.0144C36.1296 30.3676 36.3062 30.7999 36.3062 31.3113C36.3062 31.8227 36.1296 32.255 35.7765 32.6081C35.4234 32.9613 34.9911 33.1378 34.4796 33.1378ZM25.0912 40.444C24.5432 40.444 24.0834 40.2339 23.7118 39.8135C23.3401 39.3932 23.1545 38.8973 23.155 38.326C23.155 37.6928 23.3713 37.1387 23.8038 36.6638C24.2363 36.1889 24.6655 35.7201 25.0912 35.2574C25.4443 34.8799 25.7487 34.469 26.0044 34.0248C26.2602 33.5806 26.5646 33.1634 26.9177 32.7733C27.1856 32.4567 27.4961 32.1948 27.8493 31.9878C28.2024 31.7808 28.586 31.6771 29 31.6766C29.414 31.6766 29.7976 31.774 30.1507 31.9688C30.5038 32.1637 30.8144 32.4194 31.0823 32.736C31.4232 33.1257 31.7247 33.5458 31.9868 33.9963C32.2488 34.4469 32.5562 34.867 32.9088 35.2566C33.335 35.7194 33.7641 36.1882 34.1962 36.6631C34.6282 37.138 34.8445 37.692 34.8449 38.3252C34.8449 38.8976 34.6591 39.3939 34.2875 39.8142C33.9158 40.2346 33.4563 40.4445 32.9088 40.444C32.2512 40.444 31.5998 40.3892 30.9544 40.2796C30.309 40.1701 29.6575 40.1153 29 40.1153C28.3424 40.1153 27.691 40.1701 27.0456 40.2796C26.4002 40.3892 25.7487 40.444 25.0912 40.444Z" fill="black"/>
</svg>
